<?xml version="1.0" encoding="UTF-8" standalone="no"?>
<!-- Created with Inkscape (http://www.inkscape.org/) -->

<svg
   xmlns:osb="http://www.openswatchbook.org/uri/2009/osb"
   xmlns:dc="http://purl.org/dc/elements/1.1/"
   xmlns:cc="http://creativecommons.org/ns#"
   xmlns:rdf="http://www.w3.org/1999/02/22-rdf-syntax-ns#"
   xmlns:svg="http://www.w3.org/2000/svg"
   xmlns="http://www.w3.org/2000/svg"
   xmlns:xlink="http://www.w3.org/1999/xlink"
   xmlns:sodipodi="http://sodipodi.sourceforge.net/DTD/sodipodi-0.dtd"
   xmlns:inkscape="http://www.inkscape.org/namespaces/inkscape"
   width="500"
   height="500"
   viewBox="0 0 500.00001 500.00001"
   id="svg2"
   version="1.1"
   inkscape:version="0.91 r13725"
   sodipodi:docname="WAPI-dashboard-ok.svg">
  <defs
     id="defs4">
    <linearGradient
       id="linearGradient4151"
       osb:paint="solid">
      <stop
         style="stop-color:#4e9525;stop-opacity:1;"
         offset="0"
         id="stop4153" />
    </linearGradient>
    <linearGradient
       inkscape:collect="always"
       xlink:href="#linearGradient4151"
       id="linearGradient4155"
       x1="279.31223"
       y1="742.75049"
       x2="613.6626"
       y2="742.75049"
       gradientUnits="userSpaceOnUse"
       gradientTransform="matrix(1.4571825,0,0,1.4376942,-400.15618,-266.34454)" />
  </defs>
  <sodipodi:namedview
     id="base"
     pagecolor="#ffffff"
     bordercolor="#666666"
     borderopacity="1.0"
     inkscape:pageopacity="0.0"
     inkscape:pageshadow="2"
     inkscape:zoom="1.4"
     inkscape:cx="330.12074"
     inkscape:cy="282.40733"
     inkscape:document-units="px"
     inkscape:current-layer="layer1"
     showgrid="false"
     units="px"
     inkscape:window-width="1920"
     inkscape:window-height="1021"
     inkscape:window-x="1911"
     inkscape:window-y="-9"
     inkscape:window-maximized="1" />
  <metadata
     id="metadata7">
    <rdf:RDF>
      <cc:Work
         rdf:about="">
        <dc:format>image/svg+xml</dc:format>
        <dc:type
           rdf:resource="http://purl.org/dc/dcmitype/StillImage" />
        <dc:title />
      </cc:Work>
    </rdf:RDF>
  </metadata>
  <g
     inkscape:label="Capa 1"
     inkscape:groupmode="layer"
     id="layer1"
     transform="translate(0,-552.36216)">
    <ellipse
       style="fill:#4e9525;fill-opacity:0;stroke:url(#linearGradient4155);stroke-width:13.02664948;stroke-miterlimit:4;stroke-dasharray:none;stroke-opacity:1"
       id="path3347"
       cx="250.4574"
       cy="801.50354"
       rx="242.87613"
       ry="243.25865" />
    <path
       style="fill:none;fill-rule:evenodd;stroke:#4e9525;stroke-width:13;stroke-linecap:butt;stroke-linejoin:round;stroke-miterlimit:4;stroke-dasharray:none;stroke-opacity:1;fill-opacity:1"
       d="m 412.32143,694.86216 c 0,0 -10.71429,-12.5 -27.67857,-5.17857 L 191.96429,870.39787 110.89286,793.9693 c 0,0 -14.821431,-11.60714 -29.285717,2.5 0,0 -9.285714,7.67857 -4.821428,24.28572 l 98.571425,94.28571 c 0,0 15.89286,15.71429 34.28572,-1.07143 L 415.35714,718.79073 c 0,0 7.5,-12.32143 -3.03571,-23.92857 z"
       id="path4149"
       inkscape:connector-curvature="0" />
    <path
       style="fill:#1cc176;fill-opacity:1;stroke:#1cc176;stroke-width:9.28571415;stroke-linecap:round;stroke-linejoin:round;stroke-miterlimit:4;stroke-dasharray:none;stroke-opacity:1"
       d="M 232.92694,484.90726 C 189.19571,481.76386 145.31005,465.44441 110.47057,439.37027 98.417266,430.34947 91.771023,424.47992 80.930482,413.28225 43.687244,374.81211 21.844125,327.98192 15.589872,273.19634 14.438027,263.10649 14.453437,234.78354 15.616298,224.62492 22.005508,168.80951 45.334826,120.18567 84.362302,81.341894 147.36075,18.639989 239.92583,-3.1821278 324.56782,24.713702 c 74.70042,24.619345 132.79923,85.942368 153.53364,162.054068 5.20106,19.09202 7.45499,34.5264 8.08396,55.35715 0.99565,32.97422 -4.18569,63.18377 -15.98746,93.21428 -30.93334,78.71225 -101.07822,134.85877 -184.24252,147.47442 -17.78824,2.6984 -35.10404,3.38205 -53.0285,2.09364 z M 201.96612,374.25392 c 2.06622,-0.72124 5.48355,-2.53997 7.59405,-4.0416 2.11051,-1.50165 50.4021,-46.89299 107.31466,-100.86965 84.78728,-80.41343 103.76919,-98.75029 105.09296,-101.52164 6.5137,-13.63648 0.56434,-29.41261 -13.74913,-36.45911 -4.79835,-2.36223 -5.27827,-2.45129 -13.20857,-2.45129 -6.87715,0 -8.75745,0.24741 -11.4436,1.50573 -2.27039,1.06356 -30.86445,27.44934 -97.37303,89.85306 l -94.15875,88.34734 -7.62697,-7.12299 c -4.19482,-3.91765 -21.6091,-20.33055 -38.69839,-36.47312 -33.71308,-31.84542 -35.21391,-33.00848 -44.1415,-34.20741 -18.675929,-2.50806 -34.867455,13.35434 -32.660067,31.9962 1.066922,9.01039 -2.44221,5.15811 53.070907,58.26045 46.25315,44.24453 51.72013,49.24802 56.26853,51.49811 8.15595,4.03474 15.49546,4.55643 23.7189,1.68592 z"
       id="path4151"
       inkscape:connector-curvature="0"
       transform="translate(0,552.36216)" />
  </g>
</svg>
